<svg width="202" height="210" viewBox="0 0 202 210" fill="none" xmlns="http://www.w3.org/2000/svg">
<path d="M100.867 78C89.5506 56.0275 71.5059 9.85416 89.8615 0.941354C108.217 -7.97145 104.847 48.6001 100.867 78Z" fill="#66971D"/>
<path d="M126.428 88.0366C136.492 65.5712 161.207 22.8289 179.556 31.5837C197.904 40.3385 151.782 72.8668 126.428 88.0366Z" fill="#66971D"/>
<path d="M74.7516 115.639C64.6877 138.104 39.9727 180.847 21.6242 172.092C3.27562 163.337 49.3972 130.809 74.7516 115.639Z" fill="#66971D"/>
<path d="M125.584 114.479C150.097 116.744 198.532 126.322 196.176 146.515C193.819 166.709 148.133 133.571 125.584 114.479Z" fill="#66971D"/>
<path d="M75.5952 89.1967C51.083 86.9316 2.64766 77.353 5.00417 57.1598C7.36069 36.9667 53.0467 70.1039 75.5952 89.1967Z" fill="#66971D"/>
<path d="M105.878 129.513C110.694 153.654 115.319 202.81 95.2919 206.307C75.2647 209.804 94.0046 156.568 105.878 129.513Z" fill="#66971D"/>
</svg>
