<svg width="1920" height="6678" viewBox="0 0 1920 6678" fill="none" xmlns="http://www.w3.org/2000/svg">
<g clip-path="url(#clip0_355_494)">
<rect width="1920" height="6678" fill="#4C0F0F"/>
<path d="M-174 -414V554.5C-59.8333 543.167 307.3 601.9 484.5 725.5C706 880 840.908 919.962 998 903.5C1165 886 1382.5 936.5 1570.5 927C1758.5 917.5 1966.5 921.5 2053 858.5V-414H-174Z" fill="#EBE1C7" stroke="black"/>
<path d="M74.0025 1998C184.735 1998.18 430.191 2034.24 526.15 2177.1C646.099 2355.68 858.348 2224.37 997.001 2266.39C1135.65 2308.41 1375.55 2171.32 1532.5 2308.41C1658.06 2418.08 1843.15 2326.09 1920 2266.39V12679H0V1998H74.0025Z" fill="#EBE1C7"/>
<path d="M-227 3355.83C-126.333 3347.49 94.8 3402.93 252 3491.33C409.2 3579.73 671.5 3454.33 864 3491.33C864 3491.33 1116.3 3550.63 1293.5 3687.83C1470.7 3825.03 1761.5 3588.83 1761.5 3588.83C1761.5 3588.83 2209 3266.83 2290 3612.83V11039.3H-371L-227 3355.83Z" fill="#4C0F0F"/>
<path d="M-146 5182.68C-119.989 5074.29 -7.14288 4890.02 236.157 5020.09C479.457 5150.17 655.33 5058.75 742.365 5020.09C829.401 4981.44 996.203 5026.34 1233.57 5182.68C1443.15 5320.73 1605.39 5122.15 1709.26 4953.22C1800.13 4806.58 2042.7 4591.71 2286 4905.36V11282H-146V5182.68Z" fill="#EBE1C7"/>
<path d="M-106 6347.3C-89.8184 6331.99 -26.1119 6303.65 99.2604 6312.77C224.633 6321.89 315.778 6360.07 345.678 6378.02C398.093 6401.25 539.978 6405.9 614.273 6378.02C707.141 6343.18 727.178 6312.77 967.264 6312.77C1063.3 6312.77 1256.99 6333.68 1324.01 6378.02C1378.35 6404.21 1494.71 6451.77 1620.51 6378.02C1746.3 6304.28 1952.58 6347.3 2040 6378.02V6678C1201.94 6678 732.064 6678 -106 6678V6347.3Z" fill="#4C0F0F"/>
</g>
<defs>
<clipPath id="clip0_355_494">
<rect width="1920" height="6678" fill="white"/>
</clipPath>
</defs>
</svg>
