<svg width="62" height="47" viewBox="0 0 62 47" fill="none" xmlns="http://www.w3.org/2000/svg">
<path d="M0 20.5366L13.2306 28.6586L20.0636 42.4973L23.2221 34.7915L30.7751 39.4268L37.6163 29.2707L37.6287 29.2789C38.326 28.3424 39.4277 27.8813 40.4531 28.0282L43.6715 23.2501L45.4932 24.4497L42.2748 29.2278C42.8071 30.1072 42.7988 31.2884 42.1964 32.2861L42.2088 32.2943L35.4666 42.3055L43.1145 47L62 0L0 20.5366Z" fill="#8A181A"/>
<path d="M20.0615 42.4972L26.7728 37.0968L23.2201 34.9648L20.0615 42.4972Z" fill="#501414"/>
<path d="M13.3145 28.7135L59.9857 1.65234L23.306 34.8463L20.1474 42.5522L13.3145 28.7135Z" fill="#7A191B"/>
</svg>
