<svg width="1239" height="699" viewBox="0 0 1239 699" fill="none" xmlns="http://www.w3.org/2000/svg">
<rect width="1239" height="699" fill="#EBE1C7"/>
<path d="M913.534 163.736C910.592 163.736 907.772 163.263 905.075 162.317C902.378 161.354 899.979 159.83 897.877 157.746C895.776 155.644 894.121 152.895 892.912 149.497C891.704 146.082 891.109 141.923 891.126 137.019C891.144 132.588 891.687 128.613 892.755 125.093C893.823 121.555 895.347 118.552 897.326 116.082C899.322 113.613 901.704 111.73 904.471 110.434C907.256 109.121 910.364 108.464 913.797 108.464C917.562 108.464 920.881 109.2 923.753 110.671C926.643 112.124 928.955 114.086 930.688 116.555C932.422 119.007 933.447 121.739 933.762 124.751H920.969C920.583 123.052 919.734 121.765 918.42 120.89C917.124 119.996 915.583 119.55 913.797 119.55C910.504 119.55 908.044 120.977 906.415 123.832C904.804 126.686 903.981 130.504 903.946 135.285H904.287C905.023 133.674 906.082 132.291 907.466 131.135C908.849 129.979 910.434 129.094 912.221 128.482C914.025 127.851 915.934 127.536 917.948 127.536C921.17 127.536 924.016 128.28 926.485 129.769C928.955 131.257 930.89 133.298 932.291 135.89C933.692 138.464 934.384 141.415 934.366 144.743C934.384 148.49 933.508 151.8 931.739 154.672C929.97 157.527 927.518 159.751 924.384 161.345C921.266 162.939 917.65 163.736 913.534 163.736ZM913.455 153.753C915.049 153.753 916.476 153.377 917.737 152.623C918.998 151.87 919.988 150.846 920.706 149.55C921.424 148.254 921.774 146.792 921.757 145.163C921.774 143.517 921.424 142.054 920.706 140.776C920.005 139.497 919.025 138.482 917.764 137.728C916.52 136.975 915.093 136.599 913.482 136.599C912.308 136.599 911.214 136.818 910.198 137.256C909.182 137.693 908.298 138.306 907.545 139.095C906.809 139.865 906.231 140.776 905.811 141.827C905.391 142.86 905.172 143.981 905.154 145.189C905.172 146.783 905.539 148.228 906.257 149.524C906.976 150.82 907.956 151.853 909.2 152.623C910.443 153.377 911.862 153.753 913.455 153.753ZM963.992 164.313C959.298 164.313 955.253 163.201 951.855 160.977C948.458 158.736 945.839 155.522 944.001 151.336C942.162 147.133 941.251 142.081 941.269 136.179C941.286 130.277 942.205 125.268 944.027 121.152C945.866 117.019 948.475 113.876 951.855 111.721C955.253 109.55 959.298 108.464 963.992 108.464C968.685 108.464 972.731 109.55 976.128 111.721C979.544 113.876 982.171 117.019 984.009 121.152C985.848 125.285 986.759 130.294 986.741 136.179C986.741 142.098 985.822 147.159 983.983 151.362C982.144 155.566 979.526 158.779 976.128 161.003C972.748 163.21 968.703 164.313 963.992 164.313ZM963.992 153.674C966.794 153.674 969.062 152.247 970.796 149.392C972.53 146.52 973.388 142.116 973.37 136.179C973.37 132.291 972.976 129.086 972.188 126.564C971.4 124.024 970.305 122.133 968.904 120.89C967.503 119.646 965.866 119.024 963.992 119.024C961.207 119.024 958.957 120.434 957.241 123.254C955.524 126.056 954.657 130.364 954.64 136.179C954.622 140.119 954.999 143.385 955.769 145.977C956.558 148.569 957.661 150.504 959.079 151.783C960.498 153.044 962.135 153.674 963.992 153.674ZM1016.44 164.313C1011.75 164.313 1007.7 163.201 1004.3 160.977C1000.91 158.736 998.287 155.522 996.448 151.336C994.609 147.133 993.699 142.081 993.716 136.179C993.734 130.277 994.653 125.268 996.474 121.152C998.313 117.019 1000.92 113.876 1004.3 111.721C1007.7 109.55 1011.75 108.464 1016.44 108.464C1021.13 108.464 1025.18 109.55 1028.58 111.721C1031.99 113.876 1034.62 117.019 1036.46 121.152C1038.3 125.285 1039.21 130.294 1039.19 136.179C1039.19 142.098 1038.27 147.159 1036.43 151.362C1034.59 155.566 1031.97 158.779 1028.58 161.003C1025.2 163.21 1021.15 164.313 1016.44 164.313ZM1016.44 153.674C1019.24 153.674 1021.51 152.247 1023.24 149.392C1024.98 146.52 1025.84 142.116 1025.82 136.179C1025.82 132.291 1025.42 129.086 1024.64 126.564C1023.85 124.024 1022.75 122.133 1021.35 120.89C1019.95 119.646 1018.31 119.024 1016.44 119.024C1013.65 119.024 1011.4 120.434 1009.69 123.254C1007.97 126.056 1007.1 130.364 1007.09 136.179C1007.07 140.119 1007.45 143.385 1008.22 145.977C1009.01 148.569 1010.11 150.504 1011.53 151.783C1012.95 153.044 1014.58 153.674 1016.44 153.674ZM1068.89 164.313C1064.19 164.313 1060.15 163.201 1056.75 160.977C1053.35 158.736 1050.73 155.522 1048.9 151.336C1047.06 147.133 1046.15 142.081 1046.16 136.179C1046.18 130.277 1047.1 125.268 1048.92 121.152C1050.76 117.019 1053.37 113.876 1056.75 111.721C1060.15 109.55 1064.19 108.464 1068.89 108.464C1073.58 108.464 1077.63 109.55 1081.02 111.721C1084.44 113.876 1087.07 117.019 1088.9 121.152C1090.74 125.285 1091.65 130.294 1091.64 136.179C1091.64 142.098 1090.72 147.159 1088.88 151.362C1087.04 155.566 1084.42 158.779 1081.02 161.003C1077.64 163.21 1073.6 164.313 1068.89 164.313ZM1068.89 153.674C1071.69 153.674 1073.96 152.247 1075.69 149.392C1077.42 146.52 1078.28 142.116 1078.27 136.179C1078.27 132.291 1077.87 129.086 1077.08 126.564C1076.3 124.024 1075.2 122.133 1073.8 120.89C1072.4 119.646 1070.76 119.024 1068.89 119.024C1066.1 119.024 1063.85 120.434 1062.14 123.254C1060.42 126.056 1059.55 130.364 1059.53 136.179C1059.52 140.119 1059.89 143.385 1060.66 145.977C1061.45 148.569 1062.56 150.504 1063.97 151.783C1065.39 153.044 1067.03 153.674 1068.89 153.674Z" fill="#6B0F10"/>
</svg>
