<svg width="1254" height="842" viewBox="0 0 1254 842" fill="none" xmlns="http://www.w3.org/2000/svg">
<path d="M160.742 312.159C86.814 312.159 15.5915 365 6.96234 486.749C-0.601967 593.473 86.1035 670.943 160.742 628.476C235.381 586.01 367.281 442.141 282.353 655.842C229.622 788.531 556.685 944.056 537.068 728.801C526.363 611.333 630.739 533.079 777.042 760.137C839.271 856.714 1010.76 900.379 963.182 628.476C939.839 495.084 912.779 317.169 1074.69 454.843C1251.78 605.411 1370.34 132.235 1030.98 220.593C947.868 254.155 1055.07 101.928 963.182 31.5502C878.277 -7.60419 820.808 185.662 711.526 79.3248C621.871 18.7074 566.158 205.305 508.855 205.305C436.816 205.305 416.645 84.6172 377.743 31.5502C335.933 -25.4857 242.372 25.3374 214.454 79.3252C160.742 183.195 315.603 312.159 160.742 312.159Z" fill="#6B0F10" stroke="#6B0F10" stroke-width="13"/>
</svg>
